<?xml version="1.0" standalone="no"?><!DOCTYPE svg PUBLIC "-//W3C//DTD SVG 1.1//EN" "http://www.w3.org/Graphics/SVG/1.1/DTD/svg11.dtd"><svg t="1739111003075" class="icon" viewBox="0 0 1124 1024" version="1.1" xmlns="http://www.w3.org/2000/svg" p-id="10425" xmlns:xlink="http://www.w3.org/1999/xlink" width="281" height="256"><path d="M388.052732 995.15493H147.210817V389.523831c0-34.75831-7.28338-59.392-21.835718-73.944338-14.552338-14.566761-42.488789-21.835718-83.79493-21.835718H6.345915v-112.668845c53.522028-11.278423 100.005859-30.518085 139.437071-57.747831 33.806423-23.479887 67.136901-55.872901 100.005859-97.193465h142.249465V995.15493zM1118.900282 678.248563c0 61.036169-0.461521 97.193465-1.398986 108.457465-4.701746 55.396958-21.604958 102.34231-50.709634 140.850479-43.195493 57.257465-107.981521 85.915042-194.372507 85.915042-51.632676 0-93.890704-6.345915-126.759662-19.023324-32.854535-12.677408-61.49769-34.974648-85.915042-66.891718-24.40293-31.931493-39.431211-64.093746-45.070423-96.486761-5.624789-32.393014-8.451606-78.631662-8.451605-138.744788V352.919437c0-63.848563 3.057577-115.264901 9.158309-154.234592 6.100732-38.955268 19.008901-72.53093 38.73893-100.698141 19.715606-28.167211 47.406873-50.23369 83.088225-66.199436 35.681352-15.965746 75.588507-23.941408 119.721465-23.941409 50.709634 0 95.534873 9.619831 134.504563 28.873916 38.96969 19.254085 68.319549 45.777127 88.035155 79.583549 18.778141 29.104676 30.042141 59.853521 33.806423 92.246535 3.749859 32.393014 5.624789 80.521014 5.624789 144.369578v325.343549z m-216.900507 74.651043V247.274366c0-31.931493-2.10569-54.949859-6.345916-69.026253-4.21138-14.076394-14.783099-21.114592-31.68631-21.114592-15.013859 0-25.585577 6.807437-31.68631 20.42231-6.100732 13.614873-9.15831 33.085296-9.158309 58.440113v580.290704c2.826817 31.91707 15.965746 47.882817 39.445633 47.882817 17.840676 0 28.873915-7.28338 33.099719-21.835719 4.225803-14.552338 6.345915-44.363718 6.345915-89.419718z" fill="#FF7B54" p-id="10426"></path></svg>