<svg width="128" height="128" xmlns="http://www.w3.org/2000/svg" fill="#000000" preserveAspectRatio="xMidYMid meet" class="iconify iconify--noto" role="img" aria-hidden="true">

 <g>
  <title>Layer 1</title>
  <g stroke-width="0" id="SVGRepo_bgCarrier"/>
  <g stroke-linejoin="round" stroke-linecap="round" id="SVGRepo_tracerCarrier"/>
  <g id="SVGRepo_iconCarrier">
   <path id="svg_1" fill="#FF7B54" d="m102.11208,8.63252l-24.64,0c-1.24,0 -2.24,1 -2.24,2.24l0,45.53c0.31,10.84 -0.18,23.69 -1.52,25.89c-0.1,0.13 -0.2,0.28 -0.27,0.43c-1.6,3.33 -6.9,6.78 -12.99,6.78c-6.33,0 -13.78,-5.46 -15.94,-11.68a2.24,2.24 0 0 0 -2.79,-1.41l-20.47,6.41c-1.06,0.33 -1.7,1.38 -1.53,2.48c0.01,0.07 0.03,0.14 0.04,0.2c2.32,17.58 18.94,29.38 41.46,29.38c22.53,0 39.16,-11.81 41.48,-29.4c0.02,-0.1 0.04,-0.19 0.05,-0.29c1.56,-15.02 1.58,-28.71 1.58,-28.85l0,-45.47c0.02,-1.23 -0.98,-2.24 -2.22,-2.24z"/>
  </g>
 </g>
</svg>