<svg width="128" height="128" xmlns="http://www.w3.org/2000/svg" fill="#000000" preserveAspectRatio="xMidYMid meet" class="iconify iconify--noto" role="img" aria-hidden="true">

 <g>
  <title>Layer 1</title>
  <g stroke-width="0" id="SVGRepo_bgCarrier"/>
  <g stroke-linejoin="round" stroke-linecap="round" id="SVGRepo_tracerCarrier"/>
  <g id="SVGRepo_iconCarrier">
   <path id="svg_1" fill="#707070" d="m102.80011,103.26726c10.8,-9.85 16.84,-24.08 16.84,-39.9c0,-29.73 -21.33,-53.82 -55.45,-53.82s-55.45,24.1 -55.45,53.82c0,29.73 21.33,53.82 55.45,53.82c7.69,0 14.72,-1.23 21.01,-3.47l5.97,8.54a2.079,2.079 0 0 0 2.28,0.81l16.51,-4.75c0.64,-0.19 1.16,-0.67 1.39,-1.31c0.22,-0.63 0.13,-1.33 -0.26,-1.89l-8.29,-11.85zm-38.61,-11.94c-17.72,0 -28.81,-12.52 -28.81,-27.96s11.08,-27.96 28.81,-27.96s28.81,12.52 28.81,27.96c0,6.65 -2.07,12.76 -5.82,17.56l-7.26,-10.38a2.086,2.086 0 0 0 -2.28,-0.81l-16.52,4.75c-0.64,0.19 -1.16,0.67 -1.39,1.31c-0.22,0.63 -0.13,1.33 0.26,1.89l9.27,13.25c-1.62,0.24 -3.3,0.39 -5.07,0.39z"/>
  </g>
 </g>
</svg>