<svg width="128" height="128" xmlns="http://www.w3.org/2000/svg" fill="#000000" preserveAspectRatio="xMidYMid meet" class="iconify iconify--noto" role="img" aria-hidden="true">

 <g>
  <title>Layer 1</title>
  <g stroke-width="0" id="SVGRepo_bgCarrier"/>
  <g stroke-linejoin="round" stroke-linecap="round" id="SVGRepo_tracerCarrier"/>
  <g id="SVGRepo_iconCarrier">
   <path id="svg_1" fill="#707070" d="m108.84352,112.80249l-33.63,-53.72l29.73,-44.82c0.45,-0.69 0.5,-1.57 0.1,-2.3a2.222,2.222 0 0 0 -1.97,-1.18l-24.44,0c-0.74,0 -1.45,0.38 -1.86,1l-26.99,40.69l0,-39.44c0,-1.24 -1.01,-2.24 -2.24,-2.24l-21.9,0c-1.24,0 -2.24,1 -2.24,2.24l0,100.96c0,1.24 1,2.24 2.24,2.24l21.9,0c1.23,0 2.24,-1 2.24,-2.24l0,-48.05l30.82,49.24c0.41,0.65 1.13,1.05 1.9,1.05l24.44,0c0.81,0 1.57,-0.44 1.96,-1.16c0.39,-0.71 0.37,-1.58 -0.06,-2.27z"/>
  </g>
 </g>
</svg>