<?xml version="1.0" standalone="no"?><!DOCTYPE svg PUBLIC "-//W3C//DTD SVG 1.1//EN" "http://www.w3.org/Graphics/SVG/1.1/DTD/svg11.dtd"><svg t="1739110580681" class="icon" viewBox="0 0 1024 1024" version="1.1" xmlns="http://www.w3.org/2000/svg" p-id="4669" xmlns:xlink="http://www.w3.org/1999/xlink" width="256" height="256"><path d="M868.173913 1024v-114.131478H407.752348v-10.128696c0-71.835826 74.217739-170.496 222.675478-296.002783l15.09287-13.356521C793.956174 465.252174 868.173913 363.408696 868.173913 284.827826v-57.61113c0-61.862957-22.550261-115.2-67.673043-159.98887C755.422609 22.394435 701.417739 0 638.530783 0H407.752348C272.62887 0 196.051478 75.731478 178.086957 227.194435h115.378086c5.38713-75.375304 43.475478-113.062957 114.287305-113.062957H523.130435c30.920348 0 57.878261 11.130435 80.873739 33.324522 22.995478 22.238609 34.504348 48.818087 34.504348 79.738435v57.61113c0 78.58087-74.217739 180.446609-222.675479 305.597218l-15.62713 13.33426C252.126609 729.243826 178.086957 831.287652 178.086957 909.868522V1024h690.086956z" fill="#707070" p-id="4670"></path></svg>