<?xml version="1.0" standalone="no"?><!DOCTYPE svg PUBLIC "-//W3C//DTD SVG 1.1//EN" "http://www.w3.org/Graphics/SVG/1.1/DTD/svg11.dtd"><svg t="1739110861668" class="icon" viewBox="0 0 1024 1024" version="1.1" xmlns="http://www.w3.org/2000/svg" p-id="8037" xmlns:xlink="http://www.w3.org/1999/xlink" width="256" height="256"><path d="M638.508522 1024c62.174609 0 115.97913-22.305391 161.458087-66.938435C845.467826 912.473043 868.173913 859.046957 868.173913 796.783304V568.542609c0-51.556174-21.815652-102.310957-65.513739-152.264348-43.653565-49.975652-98.393043-74.952348-164.151652-74.952348H523.130435L867.639652 114.131478 868.173913 0H178.086957v114.131478h460.421565l-345.043479 227.194435v114.131478H523.130435c38.466783 0 67.294609 14.402783 86.528 43.208348 19.233391 28.805565 28.850087 52.090435 28.850087 69.87687v228.262956c0 30.942609-11.419826 57.499826-34.237218 79.738435-22.817391 22.216348-49.864348 33.324522-81.140869 33.324522h-115.378087c-70.789565 0-108.900174-37.687652-114.287305-113.085218H178.086957C195.695304 948.290783 272.250435 1024 407.752348 1024h230.756174z" fill="#FA1E0E" p-id="8038"></path></svg>