<?xml version="1.0" standalone="no"?><!DOCTYPE svg PUBLIC "-//W3C//DTD SVG 1.1//EN" "http://www.w3.org/Graphics/SVG/1.1/DTD/svg11.dtd"><svg t="1739110981417" class="icon" viewBox="0 0 1024 1024" version="1.1" xmlns="http://www.w3.org/2000/svg" p-id="9032" xmlns:xlink="http://www.w3.org/1999/xlink" width="256" height="256"><path d="M638.508522 1024c62.174609 0 115.97913-22.305391 161.458087-66.938435C845.467826 912.473043 868.173913 859.046957 868.173913 796.783304V568.542609c0-62.241391-22.550261-115.645217-67.673043-160.278261-45.100522-44.610783-99.105391-66.938435-161.992348-66.938435H407.752348V114.131478h459.887304L868.173913 0H178.086957v455.457391h345.043478c31.276522 0 58.323478 11.130435 81.140869 33.346783s34.237217 48.795826 34.237218 79.738435v228.262956c0 30.942609-11.419826 57.499826-34.237218 79.738435-22.817391 22.216348-49.864348 33.324522-81.140869 33.324522h-115.378087c-70.789565 0-108.900174-37.687652-114.287305-113.085218H178.086957C195.695304 948.290783 272.250435 1024 407.752348 1024h230.756174z" fill="#FF7B54" p-id="9033"></path></svg>