<?xml version="1.0" standalone="no"?><!DOCTYPE svg PUBLIC "-//W3C//DTD SVG 1.1//EN" "http://www.w3.org/Graphics/SVG/1.1/DTD/svg11.dtd"><svg t="1739110993068" class="icon" viewBox="0 0 1024 1024" version="1.1" xmlns="http://www.w3.org/2000/svg" p-id="9828" xmlns:xlink="http://www.w3.org/1999/xlink" width="256" height="256"><path d="M752.795826 0v114.131478h-114.287304l-7.902609 0.111305c-60.237913 1.78087-111.972174 24.153043-155.180522 67.09426-45.122783 44.78887-67.673043 98.125913-67.673043 159.98887v114.131478l1.046261-7.546434c5.253565-34.615652 16.873739-60.727652 34.816-78.31374 19.233391-18.832696 45.723826-28.271304 79.515826-28.271304h115.378087l7.791304 0.133565c59.592348 1.78087 110.992696 24.041739 154.223304 66.80487C845.623652 452.897391 868.173913 506.301217 868.173913 568.542609v228.262956l-0.111304 7.635478c-1.80313 58.301217-24.33113 108.989217-67.539479 152.086261C755.400348 1001.516522 701.395478 1024 638.508522 1024H407.752348l-7.791305-0.111304c-59.592348-1.78087-110.992696-24.264348-154.223304-67.361392C200.637217 911.582609 178.086957 858.312348 178.086957 796.805565V397.868522l0.111304-9.861565c2.337391-104.603826 41.917217-194.82713 118.761739-270.692174C376.208696 39.134609 470.661565 0 580.274087 0h172.521739zM523.130435 455.457391c-31.610435 0-58.768696 11.130435-81.408 33.346783s-33.970087 48.795826-33.970087 79.738435v228.262956l0.155826 6.054957c1.402435 28.048696 12.577391 52.49113 33.54713 73.416348 22.461217 22.394435 49.686261 33.591652 81.675131 33.591652 31.98887 0 59.213913-11.197217 81.697391-33.613913 22.438957-22.394435 33.680696-48.88487 33.680696-79.471305V568.542609l-0.155826-6.144c-1.424696-28.315826-12.777739-52.847304-34.081392-73.594435-22.817391-22.216348-49.864348-33.346783-81.140869-33.346783z" fill="#FF7B54" p-id="9829"></path></svg>