<?xml version="1.0" standalone="no"?><!DOCTYPE svg PUBLIC "-//W3C//DTD SVG 1.1//EN" "http://www.w3.org/Graphics/SVG/1.1/DTD/svg11.dtd"><svg t="1739110990016" class="icon" viewBox="0 0 1024 1024" version="1.1" xmlns="http://www.w3.org/2000/svg" p-id="9629" xmlns:xlink="http://www.w3.org/1999/xlink" width="256" height="256"><path d="M638.508522 1024c64.690087 0 119.140174-25.33287 163.350261-75.998609C846.06887 897.335652 868.173913 846.937043 868.173913 796.805565v-57.61113c0-53.337043-19.144348-104.537043-57.433043-153.6C772.496696 536.531478 715.085913 512 638.530783 512c76.55513-8.904348 133.965913-32.345043 172.254608-70.41113C849.029565 403.545043 868.173913 351.298783 868.173913 284.805565v-57.61113c0-61.862957-22.550261-115.2-67.673043-159.98887C755.422609 22.394435 701.417739 0 638.530783 0H407.752348c-62.886957 0-116.891826 22.394435-162.014609 67.205565C200.637217 111.972174 178.086957 165.331478 178.086957 227.194435v57.61113c0 66.493217 19.233391 118.739478 57.677913 156.783305 38.466783 38.066087 95.788522 61.529043 171.987478 70.41113-76.911304 0-134.41113 24.531478-172.521739 73.594435C197.142261 634.657391 178.086957 685.857391 178.086957 739.194435v57.61113c0 50.131478 22.105043 100.530087 66.31513 151.195826C288.612174 998.66713 343.04 1024 407.752348 1024h230.756174zM523.130435 455.457391c-31.610435 0-58.768696-11.286261-81.408-33.836521-22.639304-22.594783-33.970087-49.352348-33.970087-80.294957v-114.131478c0-30.942609 11.330783-57.499826 33.970087-79.738435 22.639304-22.216348 49.775304-33.324522 81.408-33.324522 31.276522 0 58.323478 11.130435 81.140869 33.324522 22.817391 22.238609 34.237217 48.818087 34.237218 79.738435v114.131478c0 30.942609-11.419826 57.700174-34.237218 80.272696-22.817391 22.572522-49.864348 33.858783-81.140869 33.858782z m0 454.411131c-31.610435 0-58.768696-11.130435-81.408-33.324522-22.639304-22.238609-33.970087-48.818087-33.970087-79.738435v-114.131478c0-76.087652 38.466783-114.131478 115.378087-114.131478s115.378087 38.043826 115.378087 114.131478v114.131478c0 30.942609-11.419826 57.499826-34.237218 79.738435-22.817391 22.216348-49.864348 33.324522-81.140869 33.324522z" fill="#FF7B54" p-id="9630"></path></svg>