<?xml version="1.0" standalone="no"?><!DOCTYPE svg PUBLIC "-//W3C//DTD SVG 1.1//EN" "http://www.w3.org/Graphics/SVG/1.1/DTD/svg11.dtd"><svg t="1739110662325" class="icon" viewBox="0 0 1024 1024" version="1.1" xmlns="http://www.w3.org/2000/svg" p-id="5909" xmlns:xlink="http://www.w3.org/1999/xlink" width="256" height="256"><path d="M638.508522 0l7.791304 0.111304c59.592348 1.78087 110.992696 24.153043 154.223304 67.094261C845.623652 111.972174 868.173913 165.331478 868.173913 227.194435v398.937043l-0.111304 9.817044c-2.31513 104.269913-41.828174 194.426435-118.494609 270.469565C670.497391 984.776348 575.599304 1024 464.896 1024h-171.430957v-114.131478h114.287305l7.858087-0.111305c59.881739-1.78087 111.37113-24.153043 154.423652-67.09426 44.922435-44.78887 67.383652-98.125913 67.383652-159.98887V568.542609l-0.756869 6.233043c-9.638957 71.92487-47.482435 107.898435-113.530435 107.898435h-115.378087l-7.769044-0.133565c-59.236174-1.78087-110.569739-24.041739-153.956174-66.80487C200.726261 571.102609 178.086957 517.698783 178.086957 455.457391V227.194435l0.111304-7.68c1.80313-58.61287 24.33113-109.389913 67.539478-152.30887C290.860522 22.394435 344.865391 0 407.752348 0h230.756174zM523.130435 114.131478c-31.610435 0-58.768696 11.197217-81.408 33.613913-22.639304 22.394435-33.970087 48.88487-33.970087 79.471305V455.457391l0.155826 6.077218c1.402435 28.026435 12.577391 52.49113 33.54713 73.394087 22.461217 22.394435 49.686261 33.613913 81.675131 33.613913 31.276522 0 58.323478-11.219478 81.140869-33.613913s34.237217-48.88487 34.237218-79.471305V227.194435l-0.155826-6.121739c-1.424696-28.338087-12.777739-52.869565-34.081392-73.616696-22.817391-22.216348-49.864348-33.324522-81.140869-33.324522z" fill="#707070" p-id="5910"></path></svg>