<?xml version="1.0" standalone="no"?><!DOCTYPE svg PUBLIC "-//W3C//DTD SVG 1.1//EN" "http://www.w3.org/Graphics/SVG/1.1/DTD/svg11.dtd"><svg t="1739108661392" class="icon" viewBox="0 0 1024 1024" version="1.1" xmlns="http://www.w3.org/2000/svg" p-id="1685" xmlns:xlink="http://www.w3.org/1999/xlink" width="256" height="256"><path d="M786.798825 392.80745c-59.004312 0-112.056996 24.574464-149.814637 64.699956-15.999 16.95894-43.773264 37.11768-73.787388 54.780576 14.07912-53.884632 58.684332-121.720392 89.5944-151.478533 39.613524-38.141616 63.996-91.83426 63.996-151.478533 0-114.87282-91.450284-208.114993-204.787201-209.330917-113.336916 1.215924-204.787201 94.3941-204.787201 209.330917 0 59.644272 24.31848 113.336916 63.996 151.478533 30.974064 29.75814 75.51528 97.5939 89.5944 151.478533-30.014124-17.726892-57.788388-37.821636-73.787388-54.780576-37.75764-40.125492-90.810324-64.699956-149.814637-64.699956-114.360852 0-207.091057 93.626148-207.091057 209.330917s92.666208 209.330917 207.091057 209.330917c59.068308 0 112.056996-25.342416 149.814637-65.467908 16.830948-17.854884 46.461096-40.125492 78.267108-58.620336-3.007812 147.702769-73.531404 256.175989-145.334917 298.861321l0 37.75764 383.976001 0 0-37.75764c-71.803512-42.749328-142.327105-151.222549-145.334917-298.861321 31.870008 18.494844 61.500156 40.765452 78.267108 58.620336 37.75764 40.061496 90.810324 65.467908 149.814637 65.467908 114.360852 0 207.091057-93.690144 207.091057-209.330917s-92.666208-209.330917-207.091057-209.330917z" fill="#707070" p-id="1686"></path></svg>